<svg width="117" height="38" viewBox="0 0 117 38" fill="none" xmlns="http://www.w3.org/2000/svg">
<path d="M8.14847 9.91226C7.58637 9.71166 7.11048 9.32213 6.80343 8.8109C6.49639 8.29967 6.37792 7.69647 6.46808 7.10692C7.34307 6.90573 8.25562 6.95902 9.09926 7.26361C9.94507 7.5619 10.6852 8.09532 11.2318 8.80186C10.9262 9.31548 10.4511 9.70723 9.88819 9.90833C9.32632 10.1115 8.71057 10.1129 8.14847 9.91226ZM9.508 6.12261C8.24618 5.67051 6.86403 5.66004 5.59239 6.09665L5.61622 6.03257C5.95523 5.11968 6.64049 4.3789 7.52283 3.96692C8.40517 3.55493 9.41255 3.50688 10.3298 3.83328C11.247 4.15969 11.9953 4.83342 12.4168 5.70847C12.8384 6.58353 12.8949 7.59204 12.5769 8.51041L12.553 8.57449C11.8473 7.43411 10.773 6.57054 9.50903 6.12473L9.508 6.12261ZM13.5345 5.17123C13.1988 4.46151 12.6956 3.84397 12.0698 3.36755C11.444 2.89114 10.7123 2.57394 9.93653 2.44082C9.16079 2.30771 8.3642 2.36311 7.61433 2.60032C6.86445 2.83754 6.1803 3.25253 5.62338 3.81006C6.04616 2.95599 6.74459 2.26911 7.60584 1.85692C8.4671 1.44473 9.44032 1.33202 10.3693 1.53729C11.3004 1.74153 12.1346 2.25269 12.7399 2.98827C13.3453 3.72385 13.6863 4.63817 13.7075 5.59046C13.6562 5.44762 13.5953 5.30679 13.5313 5.17015L13.5345 5.17123Z" fill="white"/>
<path fill-rule="evenodd" clip-rule="evenodd" d="M70.3181 37.9435C69.1861 37.9435 67.6263 37.6628 66.6207 36.3253C65.3673 34.6554 65.2784 31.807 66.3588 28.0864L69.773 17.0878C67.4945 19.5401 64.5748 20.714 63.0178 20.4782C59.7874 19.9865 60.2491 16.5099 61.9738 15.0912C61.3222 14.4108 60.5994 13.943 59.7734 13.943C57.3758 13.943 55.0474 17.292 52.6688 20.7133C52.4843 20.9786 52.2996 21.2443 52.1146 21.5089L51.8987 22.1115L47.0759 37.9435H40.478L48.4488 11.8685C44.7554 13.5355 41.7884 15.7336 39.4832 17.9847C39.4902 18.3564 39.475 18.7318 39.4375 19.1097L39.4011 19.366C39.2544 20.4244 39.0804 21.4775 38.8795 22.5253L38.8431 22.709C36.6911 32.742 29.271 37.9993 23.0545 38C21.8573 37.9997 20.7464 37.8002 19.7511 37.408C17.5148 36.5642 15.9521 35.099 15.0926 33.0511C14.301 31.1618 14.1445 28.8212 14.6435 26.2767C14.6706 26.1414 14.6994 26.0066 14.7298 25.8717C10.1653 29.8181 8.13649 34.1575 6.62494 37.9362H0.0171986L4.44093 14.6523C3.27997 16.5215 1.69489 17.8274 0 19.0223V18.662C2.72093 16.1066 4.31195 13.4764 5.19602 10.678L5.19689 10.6734L5.19947 10.6671L5.19829 10.6741L11.159 13.4287L8.0043 30.4805C10.4467 27.837 12.537 26.1437 15.1614 24.2914C16.7146 19.451 20.2699 15.0228 24.6205 12.6618C26.8999 11.403 29.5375 10.6818 31.8622 10.6818C33.9495 10.6818 37.6329 11.2891 39.0314 15.3323C42.3642 13.1222 45.222 12.0198 48.8237 10.6386L48.8216 10.6489L48.8247 10.6395L54.5839 13.1398L52.4606 20.314C53.8259 17.9251 55.7944 15.1125 59.8897 11.438L59.8636 11.4363C60.7335 10.9367 61.6014 10.6395 62.4239 10.6395C64.2344 10.6395 65.6477 12.1673 66.6301 15.1556C68.2056 15.426 69.8534 15.0907 71.3502 11.8381L74.3871 1.08057L80.1165 3.40498L77.6003 12.8716H81.9992L80.8018 14.9974H77.0484L71.941 31.8516C71.4897 33.4393 71.5363 34.5572 72.0788 35.2751C72.3314 35.6097 72.8132 36.0071 73.6832 36.0071C76.1127 36.0071 79.9273 32.9137 81.8663 29.5548C81.8996 29.2531 81.9434 28.9455 81.998 28.632C82.5943 25.2232 83.9747 20.3284 87.162 16.3824C90.1107 12.7313 93.8871 10.804 98.3861 10.6509H111.802L111.424 11.9174C110.195 16.1448 109.198 19.4367 108.243 22.588L108.104 23.0468L108.092 23.0858L108.091 23.0873C107.176 26.1015 106.311 28.9525 105.4 32.116C104.985 33.5929 105.04 34.6447 105.568 35.3351C105.822 35.6711 106.315 36.0713 107.205 36.0713C109.794 36.0713 114.036 32.6419 115.73 29.2585H116.393C113.442 34.6948 107.943 37.9092 104.059 37.9092C102.681 37.9092 101.548 37.5025 100.785 36.732C99.9429 35.8838 99.5279 34.6057 99.5462 32.9369L99.5715 30.8561L98.3104 32.5137C95.7239 35.9133 92.0574 37.9435 88.5009 37.9435V37.939C86.3639 37.939 84.5342 37.1639 83.3464 35.7579C82.2906 34.5061 81.7652 32.8042 81.7908 30.7656C80.5744 32.4996 79.0713 34.0421 77.3898 35.2611C75.0372 36.966 72.4601 37.9435 70.3204 37.9435H70.3181ZM99.9865 11.9151C96.2856 11.9151 91.7777 17.2054 89.7208 23.959C88.2602 28.8583 88.1938 32.6944 89.5375 34.4916C90.0831 35.2231 90.8537 35.6095 91.7615 35.6095C93.8505 35.6095 96.5815 33.5973 99.8834 29.6308L99.9774 29.519L104.036 15.109L103.931 14.8803C102.796 12.4318 101.158 11.9174 99.9865 11.9174V11.9151ZM25.2125 15.0047C26.4258 13.5032 27.7027 12.7435 29.0046 12.7435H29.007C31.6127 12.7435 33.366 15.7735 33.7493 18.7537C33.9533 20.1281 33.9261 21.5365 33.6675 22.9381C33.6586 22.9993 33.6314 23.1104 33.4931 23.6502C33.4687 23.7457 33.4441 23.8411 33.4215 23.9275L33.4201 23.9332L33.4199 23.9346C33.3866 24.0626 33.3589 24.1699 33.3456 24.2263V24.2399L33.332 24.2921C31.9848 29.7874 29.1406 35.6615 25.1942 35.6615C24.548 35.6615 23.9378 35.4871 23.3889 35.1513C22.1279 34.405 21.3092 33.0806 20.9554 31.2117C19.971 26.0021 22.8605 18.012 25.2125 15.0047Z" fill="white"/>
</svg>
